<svg width="16" height="13" viewBox="0 0 16 13" fill="none" xmlns="http://www.w3.org/2000/svg">
<path d="M13.0555 0.722916C13.3161 0.474812 13.6629 0.337649 14.0227 0.340372C14.3825 0.343094 14.7272 0.485489 14.984 0.737509C15.2409 0.989528 15.3897 1.33146 15.3992 1.69115C15.4087 2.05085 15.2782 2.40017 15.035 2.66541L7.65353 11.8969C7.52661 12.0336 7.37342 12.1433 7.20312 12.2195C7.03282 12.2956 6.84892 12.3366 6.6624 12.3401C6.47589 12.3435 6.29059 12.3094 6.11759 12.2396C5.94459 12.1698 5.78744 12.0658 5.65554 11.9339L0.760457 7.03879C0.624137 6.91177 0.514798 6.75859 0.438963 6.58839C0.363128 6.41819 0.322351 6.23446 0.319064 6.04817C0.315777 5.86187 0.350047 5.67681 0.419831 5.50404C0.489615 5.33128 0.593482 5.17434 0.725236 5.04258C0.85699 4.91083 1.01393 4.80696 1.1867 4.73718C1.35947 4.66739 1.54452 4.63312 1.73082 4.63641C1.91712 4.6397 2.10085 4.68047 2.27105 4.75631C2.44125 4.83214 2.59443 4.94148 2.72145 5.0778L6.59534 8.94984L13.0204 0.763617C13.0319 0.749373 13.0443 0.735785 13.0574 0.722916H13.0555Z" fill="black"/>
</svg>
