<svg width="144" height="43" viewBox="0 0 144 43" fill="none" xmlns="http://www.w3.org/2000/svg">
<rect y="0.5" width="144" height="42" rx="12" fill="#FFCB9B"/>
<path d="M33.4075 27.716C32.3755 27.716 31.4515 27.464 30.6355 26.96C29.8195 26.444 29.1775 25.7 28.7095 24.728C28.2415 23.756 28.0075 22.58 28.0075 21.2C28.0075 19.82 28.2415 18.644 28.7095 17.672C29.1775 16.7 29.8195 15.962 30.6355 15.458C31.4515 14.942 32.3755 14.684 33.4075 14.684C34.4515 14.684 35.3755 14.942 36.1795 15.458C36.9955 15.962 37.6375 16.7 38.1055 17.672C38.5735 18.644 38.8075 19.82 38.8075 21.2C38.8075 22.58 38.5735 23.756 38.1055 24.728C37.6375 25.7 36.9955 26.444 36.1795 26.96C35.3755 27.464 34.4515 27.716 33.4075 27.716ZM33.4075 25.25C33.8995 25.25 34.3255 25.112 34.6855 24.836C35.0575 24.56 35.3455 24.122 35.5495 23.522C35.7655 22.922 35.8735 22.148 35.8735 21.2C35.8735 20.252 35.7655 19.478 35.5495 18.878C35.3455 18.278 35.0575 17.84 34.6855 17.564C34.3255 17.288 33.8995 17.15 33.4075 17.15C32.9275 17.15 32.5015 17.288 32.1295 17.564C31.7695 17.84 31.4815 18.278 31.2655 18.878C31.0615 19.478 30.9595 20.252 30.9595 21.2C30.9595 22.148 31.0615 22.922 31.2655 23.522C31.4815 24.122 31.7695 24.56 32.1295 24.836C32.5015 25.112 32.9275 25.25 33.4075 25.25ZM49.9443 27.716C48.7923 27.716 47.7903 27.476 46.9383 26.996C46.0983 26.516 45.4503 25.814 44.9943 24.89C44.5383 23.966 44.3103 22.826 44.3103 21.47C44.3103 20.018 44.5803 18.788 45.1203 17.78C45.6723 16.772 46.4283 16.004 47.3883 15.476C48.3603 14.948 49.4763 14.684 50.7363 14.684C51.4083 14.684 52.0503 14.756 52.6623 14.9C53.2743 15.044 53.8023 15.26 54.2463 15.548L53.1663 17.69C52.8183 17.45 52.4463 17.288 52.0503 17.204C51.6543 17.108 51.2403 17.06 50.8083 17.06C49.7163 17.06 48.8523 17.39 48.2163 18.05C47.5803 18.71 47.2623 19.688 47.2623 20.984C47.2623 21.2 47.2623 21.44 47.2623 21.704C47.2743 21.968 47.3103 22.232 47.3703 22.496L46.5603 21.74C46.7883 21.272 47.0823 20.882 47.4423 20.57C47.8023 20.246 48.2283 20.006 48.7203 19.85C49.2243 19.682 49.7763 19.598 50.3763 19.598C51.1923 19.598 51.9243 19.76 52.5723 20.084C53.2203 20.408 53.7363 20.864 54.1203 21.452C54.5163 22.04 54.7143 22.73 54.7143 23.522C54.7143 24.374 54.4983 25.118 54.0663 25.754C53.6463 26.378 53.0763 26.864 52.3563 27.212C51.6483 27.548 50.8443 27.716 49.9443 27.716ZM49.7823 25.538C50.1903 25.538 50.5503 25.466 50.8623 25.322C51.1863 25.166 51.4383 24.944 51.6183 24.656C51.7983 24.368 51.8883 24.038 51.8883 23.666C51.8883 23.09 51.6903 22.634 51.2943 22.298C50.9103 21.95 50.3943 21.776 49.7463 21.776C49.3143 21.776 48.9363 21.86 48.6123 22.028C48.2883 22.184 48.0303 22.406 47.8383 22.694C47.6583 22.97 47.5683 23.294 47.5683 23.666C47.5683 24.026 47.6583 24.35 47.8383 24.638C48.0183 24.914 48.2703 25.136 48.5943 25.304C48.9183 25.46 49.3143 25.538 49.7823 25.538ZM64.1412 27.716C63.2652 27.716 62.3952 27.602 61.5312 27.374C60.6792 27.134 59.9472 26.798 59.3352 26.366L60.4872 24.134C60.9672 24.482 61.5192 24.758 62.1432 24.962C62.7792 25.166 63.4212 25.268 64.0692 25.268C64.8012 25.268 65.3772 25.124 65.7972 24.836C66.2172 24.548 66.4272 24.146 66.4272 23.63C66.4272 23.306 66.3432 23.018 66.1752 22.766C66.0072 22.514 65.7072 22.322 65.2752 22.19C64.8552 22.058 64.2612 21.992 63.4932 21.992H60.2712L60.9192 14.9H68.6052V17.24H61.9632L63.4752 15.908L63.0252 20.966L61.5132 19.634H64.1772C65.4252 19.634 66.4272 19.808 67.1832 20.156C67.9512 20.492 68.5092 20.954 68.8572 21.542C69.2052 22.13 69.3792 22.796 69.3792 23.54C69.3792 24.284 69.1932 24.974 68.8212 25.61C68.4492 26.234 67.8732 26.744 67.0932 27.14C66.3252 27.524 65.3412 27.716 64.1412 27.716ZM74.5043 24.854V22.892L80.4443 14.9H83.5043L77.6903 22.892L76.2683 22.478H86.1863V24.854H74.5043ZM81.2903 27.5V24.854L81.3803 22.478V20.12H84.1343V27.5H81.2903ZM96.7785 27.716C95.6265 27.716 94.6245 27.476 93.7725 26.996C92.9325 26.516 92.2845 25.814 91.8285 24.89C91.3725 23.966 91.1445 22.826 91.1445 21.47C91.1445 20.018 91.4145 18.788 91.9545 17.78C92.5065 16.772 93.2625 16.004 94.2225 15.476C95.1945 14.948 96.3105 14.684 97.5705 14.684C98.2425 14.684 98.8845 14.756 99.4965 14.9C100.108 15.044 100.636 15.26 101.08 15.548L100 17.69C99.6525 17.45 99.2805 17.288 98.8845 17.204C98.4885 17.108 98.0745 17.06 97.6425 17.06C96.5505 17.06 95.6865 17.39 95.0505 18.05C94.4145 18.71 94.0965 19.688 94.0965 20.984C94.0965 21.2 94.0965 21.44 94.0965 21.704C94.1085 21.968 94.1445 22.232 94.2045 22.496L93.3945 21.74C93.6225 21.272 93.9165 20.882 94.2765 20.57C94.6365 20.246 95.0625 20.006 95.5545 19.85C96.0585 19.682 96.6105 19.598 97.2105 19.598C98.0265 19.598 98.7585 19.76 99.4065 20.084C100.054 20.408 100.57 20.864 100.954 21.452C101.35 22.04 101.548 22.73 101.548 23.522C101.548 24.374 101.332 25.118 100.9 25.754C100.48 26.378 99.9105 26.864 99.1905 27.212C98.4825 27.548 97.6785 27.716 96.7785 27.716ZM96.6165 25.538C97.0245 25.538 97.3845 25.466 97.6965 25.322C98.0205 25.166 98.2725 24.944 98.4525 24.656C98.6325 24.368 98.7225 24.038 98.7225 23.666C98.7225 23.09 98.5245 22.634 98.1285 22.298C97.7445 21.95 97.2285 21.776 96.5805 21.776C96.1485 21.776 95.7705 21.86 95.4465 22.028C95.1225 22.184 94.8645 22.406 94.6725 22.694C94.4925 22.97 94.4025 23.294 94.4025 23.666C94.4025 24.026 94.4925 24.35 94.6725 24.638C94.8525 24.914 95.1045 25.136 95.4285 25.304C95.7525 25.46 96.1485 25.538 96.6165 25.538ZM110.975 27.716C110.099 27.716 109.229 27.602 108.365 27.374C107.513 27.134 106.781 26.798 106.169 26.366L107.321 24.134C107.801 24.482 108.353 24.758 108.977 24.962C109.613 25.166 110.255 25.268 110.903 25.268C111.635 25.268 112.211 25.124 112.631 24.836C113.051 24.548 113.261 24.146 113.261 23.63C113.261 23.306 113.177 23.018 113.009 22.766C112.841 22.514 112.541 22.322 112.109 22.19C111.689 22.058 111.095 21.992 110.327 21.992H107.105L107.753 14.9H115.439V17.24H108.797L110.309 15.908L109.859 20.966L108.347 19.634H111.011C112.259 19.634 113.261 19.808 114.017 20.156C114.785 20.492 115.343 20.954 115.691 21.542C116.039 22.13 116.213 22.796 116.213 23.54C116.213 24.284 116.027 24.974 115.655 25.61C115.283 26.234 114.707 26.744 113.927 27.14C113.159 27.524 112.175 27.716 110.975 27.716Z" fill="#864000"/>
</svg>
