<svg width="81" height="73" viewBox="0 0 81 73" fill="none" xmlns="http://www.w3.org/2000/svg">
<path d="M60.9284 62.3742C59.602 59.2325 57.6772 56.3787 55.2612 53.9719C52.8525 51.5581 49.9992 49.6336 46.8589 48.3047C46.8307 48.2906 46.8026 48.2836 46.7745 48.2695C51.155 45.1055 54.0026 39.9516 54.0026 34.1367C54.0026 24.5039 46.1979 16.6992 36.5651 16.6992C26.9323 16.6992 19.1276 24.5039 19.1276 34.1367C19.1276 39.9516 21.9753 45.1055 26.3557 48.2766C26.3276 48.2906 26.2995 48.2977 26.2714 48.3117C23.1214 49.6406 20.2948 51.5461 17.869 53.9789C15.4553 56.3876 13.5308 59.2409 12.2018 62.3813C10.8963 65.4557 10.1922 68.7519 10.1276 72.0914C10.1257 72.1664 10.1389 72.2411 10.1663 72.311C10.1938 72.3809 10.2349 72.4445 10.2873 72.4983C10.3397 72.552 10.4024 72.5947 10.4716 72.6238C10.5407 72.653 10.6151 72.668 10.6901 72.668H14.9089C15.2182 72.668 15.4643 72.4219 15.4714 72.1195C15.612 66.6914 17.7917 61.6078 21.6448 57.7547C25.6315 53.768 30.9261 51.5742 36.5651 51.5742C42.2042 51.5742 47.4987 53.768 51.4854 57.7547C55.3386 61.6078 57.5182 66.6914 57.6589 72.1195C57.6659 72.4289 57.912 72.668 58.2214 72.668H62.4401C62.5152 72.668 62.5895 72.653 62.6587 72.6238C62.7279 72.5947 62.7905 72.552 62.8429 72.4983C62.8953 72.4445 62.9365 72.3809 62.9639 72.311C62.9913 72.2411 63.0045 72.1664 63.0026 72.0914C62.9323 68.7305 62.2362 65.4609 60.9284 62.3742V62.3742ZM36.5651 46.2305C33.3378 46.2305 30.3003 44.9719 28.0151 42.6867C25.73 40.4016 24.4714 37.3641 24.4714 34.1367C24.4714 30.9094 25.73 27.8719 28.0151 25.5867C30.3003 23.3016 33.3378 22.043 36.5651 22.043C39.7925 22.043 42.83 23.3016 45.1151 25.5867C47.4003 27.8719 48.6589 30.9094 48.6589 34.1367C48.6589 37.3641 47.4003 40.4016 45.1151 42.6867C42.83 44.9719 39.7925 46.2305 36.5651 46.2305Z" fill="url(#paint0_linear_183_1308)"/>
<defs>
<linearGradient id="paint0_linear_183_1308" x1="77.7483" y1="25.5956" x2="45.836" y2="83.7092" gradientUnits="userSpaceOnUse">
<stop stop-color="#B27F2A"/>
<stop offset="0.0576" stop-color="#B7862E"/>
<stop offset="0.1404" stop-color="#C49939"/>
<stop offset="0.2379" stop-color="#DAB84C"/>
<stop offset="0.3333" stop-color="#F4DD62"/>
<stop offset="0.5161" stop-color="#F4E38B"/>
<stop offset="0.6613" stop-color="#F4DD62"/>
<stop offset="1" stop-color="#B27F2A"/>
</linearGradient>
</defs>
</svg>
