<svg width="73" height="54" viewBox="0 0 73 54" fill="none" xmlns="http://www.w3.org/2000/svg">
<path d="M63.5649 4.5C64.7584 4.5 65.903 4.97411 66.7469 5.81802C67.5908 6.66193 68.0649 7.80653 68.0649 9V45C68.0649 46.1935 67.5908 47.3381 66.7469 48.182C65.903 49.0259 64.7584 49.5 63.5649 49.5H9.56494C8.37147 49.5 7.22687 49.0259 6.38296 48.182C5.53905 47.3381 5.06494 46.1935 5.06494 45V9C5.06494 7.80653 5.53905 6.66193 6.38296 5.81802C7.22687 4.97411 8.37147 4.5 9.56494 4.5H63.5649ZM9.56494 0C7.17799 0 4.88881 0.948211 3.20098 2.63604C1.51315 4.32387 0.564941 6.61305 0.564941 9L0.564941 45C0.564941 47.3869 1.51315 49.6761 3.20098 51.364C4.88881 53.0518 7.17799 54 9.56494 54H63.5649C65.9519 54 68.2411 53.0518 69.9289 51.364C71.6167 49.6761 72.5649 47.3869 72.5649 45V9C72.5649 6.61305 71.6167 4.32387 69.9289 2.63604C68.2411 0.948211 65.9519 0 63.5649 0H9.56494Z" fill="url(#paint0_linear_183_1306)"/>
<path d="M9.56494 15.75C9.56494 15.1533 9.80199 14.581 10.224 14.159C10.6459 13.7371 11.2182 13.5 11.8149 13.5H20.8149C21.4117 13.5 21.984 13.7371 22.4059 14.159C22.8279 14.581 23.0649 15.1533 23.0649 15.75V20.25C23.0649 20.8467 22.8279 21.419 22.4059 21.841C21.984 22.2629 21.4117 22.5 20.8149 22.5H11.8149C11.2182 22.5 10.6459 22.2629 10.224 21.841C9.80199 21.419 9.56494 20.8467 9.56494 20.25V15.75ZM9.56494 29.25C9.56494 28.6533 9.80199 28.081 10.224 27.659C10.6459 27.2371 11.2182 27 11.8149 27H34.3149C34.9117 27 35.484 27.2371 35.9059 27.659C36.3279 28.081 36.5649 28.6533 36.5649 29.25C36.5649 29.8467 36.3279 30.419 35.9059 30.841C35.484 31.2629 34.9117 31.5 34.3149 31.5H11.8149C11.2182 31.5 10.6459 31.2629 10.224 30.841C9.80199 30.419 9.56494 29.8467 9.56494 29.25ZM9.56494 38.25C9.56494 37.6533 9.80199 37.081 10.224 36.659C10.6459 36.2371 11.2182 36 11.8149 36H16.3149C16.9117 36 17.484 36.2371 17.9059 36.659C18.3279 37.081 18.5649 37.6533 18.5649 38.25C18.5649 38.8467 18.3279 39.419 17.9059 39.841C17.484 40.2629 16.9117 40.5 16.3149 40.5H11.8149C11.2182 40.5 10.6459 40.2629 10.224 39.841C9.80199 39.419 9.56494 38.8467 9.56494 38.25ZM23.0649 38.25C23.0649 37.6533 23.302 37.081 23.724 36.659C24.1459 36.2371 24.7182 36 25.3149 36H29.8149C30.4117 36 30.984 36.2371 31.4059 36.659C31.8279 37.081 32.0649 37.6533 32.0649 38.25C32.0649 38.8467 31.8279 39.419 31.4059 39.841C30.984 40.2629 30.4117 40.5 29.8149 40.5H25.3149C24.7182 40.5 24.1459 40.2629 23.724 39.841C23.302 39.419 23.0649 38.8467 23.0649 38.25ZM36.5649 38.25C36.5649 37.6533 36.802 37.081 37.2239 36.659C37.6459 36.2371 38.2182 36 38.8149 36H43.3149C43.9117 36 44.484 36.2371 44.9059 36.659C45.3279 37.081 45.5649 37.6533 45.5649 38.25C45.5649 38.8467 45.3279 39.419 44.9059 39.841C44.484 40.2629 43.9117 40.5 43.3149 40.5H38.8149C38.2182 40.5 37.6459 40.2629 37.2239 39.841C36.802 39.419 36.5649 38.8467 36.5649 38.25ZM50.0649 38.25C50.0649 37.6533 50.302 37.081 50.7239 36.659C51.1459 36.2371 51.7182 36 52.3149 36H56.8149C57.4117 36 57.984 36.2371 58.4059 36.659C58.8279 37.081 59.0649 37.6533 59.0649 38.25C59.0649 38.8467 58.8279 39.419 58.4059 39.841C57.984 40.2629 57.4117 40.5 56.8149 40.5H52.3149C51.7182 40.5 51.1459 40.2629 50.7239 39.841C50.302 39.419 50.0649 38.8467 50.0649 38.25Z" fill="url(#paint1_linear_183_1306)"/>
<defs>
<linearGradient id="paint0_linear_183_1306" x1="92.6438" y1="8.58348" x2="67.9827" y2="71.9653" gradientUnits="userSpaceOnUse">
<stop stop-color="#B27F2A"/>
<stop offset="0.0576" stop-color="#B7862E"/>
<stop offset="0.1404" stop-color="#C49939"/>
<stop offset="0.2379" stop-color="#DAB84C"/>
<stop offset="0.3333" stop-color="#F4DD62"/>
<stop offset="0.5161" stop-color="#F4E38B"/>
<stop offset="0.6613" stop-color="#F4DD62"/>
<stop offset="1" stop-color="#B27F2A"/>
</linearGradient>
<linearGradient id="paint1_linear_183_1306" x1="72.8692" y1="17.7917" x2="63.3093" y2="51.5751" gradientUnits="userSpaceOnUse">
<stop stop-color="#B27F2A"/>
<stop offset="0.0576" stop-color="#B7862E"/>
<stop offset="0.1404" stop-color="#C49939"/>
<stop offset="0.2379" stop-color="#DAB84C"/>
<stop offset="0.3333" stop-color="#F4DD62"/>
<stop offset="0.5161" stop-color="#F4E38B"/>
<stop offset="0.6613" stop-color="#F4DD62"/>
<stop offset="1" stop-color="#B27F2A"/>
</linearGradient>
</defs>
</svg>
