<svg width="17" height="13" viewBox="0 0 17 13" fill="none" xmlns="http://www.w3.org/2000/svg">
<path d="M13.8589 0.404281C14.1343 0.142106 14.5007 -0.00283486 14.8809 4.20214e-05C15.2611 0.0029189 15.6254 0.153389 15.8968 0.419701C16.1681 0.686012 16.3255 1.04734 16.3355 1.42743C16.3456 1.80752 16.2076 2.17665 15.9506 2.45693L8.15054 12.2119C8.01642 12.3564 7.85454 12.4723 7.67458 12.5528C7.49463 12.6333 7.3003 12.6766 7.1032 12.6803C6.90611 12.6839 6.7103 12.6478 6.52749 12.574C6.34468 12.5003 6.17862 12.3904 6.03924 12.251L0.866555 7.07834C0.722504 6.94411 0.606965 6.78224 0.52683 6.60239C0.446694 6.42254 0.403604 6.22839 0.400131 6.03153C0.396657 5.83466 0.432871 5.63911 0.506613 5.45655C0.580354 5.27398 0.690111 5.10814 0.829337 4.96892C0.968563 4.82969 1.13441 4.71993 1.31697 4.64619C1.49954 4.57245 1.69508 4.53624 1.89195 4.53971C2.08881 4.54318 2.28296 4.58627 2.46281 4.66641C2.64266 4.74654 2.80453 4.86208 2.93876 5.00613L7.03233 9.09775L13.8217 0.447289C13.834 0.432238 13.847 0.417879 13.8608 0.404281H13.8589Z" fill="url(#paint0_linear_119_116)"/>
<defs>
<linearGradient id="paint0_linear_119_116" x1="0.399902" y1="6.34237" x2="16.3333" y2="6.34237" gradientUnits="userSpaceOnUse">
<stop stop-color="#D5A042"/>
<stop offset="0.14" stop-color="#FAC25F"/>
<stop offset="0.33" stop-color="#FFEC8A"/>
<stop offset="0.48" stop-color="#FFF6C7"/>
<stop offset="0.68" stop-color="#FBC865"/>
<stop offset="1" stop-color="#BA8C3A"/>
</linearGradient>
</defs>
</svg>
