<svg width="49" height="48" viewBox="0 0 49 48" fill="none" xmlns="http://www.w3.org/2000/svg">
<path d="M17.52 48L16.56 40.32C16.04 40.12 15.5504 39.88 15.0912 39.6C14.6304 39.32 14.18 39.02 13.74 38.7L6.6 41.7L0 30.3L6.18 25.62C6.14 25.34 6.12 25.0696 6.12 24.8088V23.1888C6.12 22.9296 6.14 22.66 6.18 22.38L0 17.7L6.6 6.3L13.74 9.3C14.18 8.98 14.64 8.68 15.12 8.4C15.6 8.12 16.08 7.88 16.56 7.68L17.52 0H30.72L31.68 7.68C32.2 7.88 32.6904 8.12 33.1512 8.4C33.6104 8.68 34.06 8.98 34.5 9.3L41.64 6.3L48.24 17.7L42.06 22.38C42.1 22.66 42.12 22.9296 42.12 23.1888V24.8088C42.12 25.0696 42.08 25.34 42 25.62L48.18 30.3L41.58 41.7L34.5 38.7C34.06 39.02 33.6 39.32 33.12 39.6C32.64 39.88 32.16 40.12 31.68 40.32L30.72 48H17.52ZM24.12 33.6C24.8 33.6 25.3704 33.3696 25.8312 32.9088C26.2904 32.4496 26.52 31.88 26.52 31.2C26.52 30.52 26.2904 29.9496 25.8312 29.4888C25.3704 29.0296 24.8 28.8 24.12 28.8C23.44 28.8 22.8704 29.0296 22.4112 29.4888C21.9504 29.9496 21.72 30.52 21.72 31.2C21.72 31.88 21.9504 32.4496 22.4112 32.9088C22.8704 33.3696 23.44 33.6 24.12 33.6ZM21.72 26.4H26.52V14.4H21.72V26.4Z" fill="#DB1226"/>
</svg>
