<svg width="22" height="22" viewBox="0 0 22 22" fill="none" xmlns="http://www.w3.org/2000/svg">
<path d="M9.98201 1.62654C10.2987 0.791152 11.4974 0.791152 11.8151 1.62654L13.864 7.30206C13.9355 7.48694 14.0614 7.6458 14.225 7.75766C14.3886 7.86952 14.5823 7.92913 14.7806 7.9286H19.8157C20.7461 7.9286 21.1519 9.08667 20.4205 9.65383L16.8374 12.8776C16.6769 13.001 16.5596 13.172 16.5023 13.3662C16.4451 13.5604 16.4508 13.7677 16.5187 13.9585L17.8272 19.5043C18.1459 20.3951 17.1145 21.1603 16.3346 20.6119L11.4677 17.5237C11.301 17.4066 11.1023 17.3437 10.8986 17.3437C10.6949 17.3437 10.4961 17.4066 10.3294 17.5237L5.46258 20.6119C4.68361 21.1603 3.65125 20.3942 3.96996 19.5043L5.27848 13.9585C5.34636 13.7677 5.35208 13.5604 5.29482 13.3662C5.23756 13.172 5.12027 13.001 4.95976 12.8776L1.37668 9.65383C0.644231 9.08667 1.05203 7.9286 1.98046 7.9286H7.01558C7.21383 7.92926 7.40761 7.86972 7.57127 7.75784C7.73494 7.64596 7.86077 7.48702 7.93213 7.30206L9.98102 1.62654H9.98201Z" fill="#DB1226" stroke="#DB1226" stroke-width="1.9796" stroke-linecap="round" stroke-linejoin="round"/>
</svg>
