<svg width="23" height="22" viewBox="0 0 23 22" fill="none" xmlns="http://www.w3.org/2000/svg">
<path d="M10.4429 1.61629C10.7597 0.780898 11.9583 0.780898 12.2761 1.61629L14.3249 7.29181C14.3964 7.47669 14.5223 7.63555 14.6859 7.74741C14.8496 7.85927 15.0433 7.91887 15.2415 7.91835H20.2766C21.207 7.91835 21.6129 9.07642 20.8814 9.64357L17.2983 12.8674C17.1378 12.9907 17.0205 13.1618 16.9633 13.356C16.906 13.5502 16.9117 13.7575 16.9796 13.9482L18.2881 19.4941C18.6068 20.3849 17.5755 21.15 16.7955 20.6017L11.9286 17.5135C11.762 17.3963 11.5632 17.3335 11.3595 17.3335C11.1558 17.3335 10.957 17.3963 10.7904 17.5135L5.92352 20.6017C5.14455 21.15 4.11218 20.3839 4.4309 19.4941L5.73942 13.9482C5.80729 13.7575 5.81301 13.5502 5.75576 13.356C5.6985 13.1618 5.5812 12.9907 5.4207 12.8674L1.83762 9.64357C1.10517 9.07642 1.51297 7.91835 2.4414 7.91835H7.47652C7.67477 7.91901 7.86854 7.85946 8.03221 7.74758C8.19587 7.6357 8.32171 7.47677 8.39307 7.29181L10.442 1.61629H10.4429Z" stroke="white" stroke-width="1.9796" stroke-linecap="round" stroke-linejoin="round"/>
</svg>
