<svg width="25" height="19" viewBox="0 0 25 19" fill="none" xmlns="http://www.w3.org/2000/svg">
<path d="M24.1819 18.7998H1.27277C1.05578 18.7998 0.847669 18.7136 0.69423 18.5602C0.540791 18.4067 0.45459 18.1986 0.45459 17.9816C0.45459 17.7646 0.540791 17.5565 0.69423 17.4031C0.847669 17.2496 1.05578 17.1634 1.27277 17.1634H24.1819C24.3989 17.1634 24.607 17.2496 24.7604 17.4031C24.9138 17.5565 25 17.7646 25 17.9816C25 18.1986 24.9138 18.4067 24.7604 18.5602C24.607 18.7136 24.3989 18.7998 24.1819 18.7998Z" fill="black"/>
<path d="M24.1819 10.618L6.2435 10.4645C6.0265 10.4645 5.8184 10.3783 5.66496 10.2249C5.51152 10.0715 5.42532 9.86336 5.42532 9.64637C5.42532 9.42937 5.51152 9.22126 5.66496 9.06782C5.8184 8.91438 6.0265 8.82818 6.2435 8.82818L24.1819 8.98162C24.3989 8.98162 24.607 9.06782 24.7604 9.22126C24.9138 9.3747 25 9.58281 25 9.7998C25 10.0168 24.9138 10.2249 24.7604 10.3783C24.607 10.5318 24.3989 10.618 24.1819 10.618Z" fill="black"/>
<path d="M24.1819 2.43617H1.27277C1.05578 2.43617 0.847669 2.34997 0.69423 2.19653C0.540791 2.04309 0.45459 1.83498 0.45459 1.61799C0.45459 1.40099 0.540791 1.19288 0.69423 1.03944C0.847669 0.886006 1.05578 0.799805 1.27277 0.799805H24.1819C24.3989 0.799805 24.607 0.886006 24.7604 1.03944C24.9138 1.19288 25 1.40099 25 1.61799C25 1.83498 24.9138 2.04309 24.7604 2.19653C24.607 2.34997 24.3989 2.43617 24.1819 2.43617Z" fill="black"/>
</svg>
