<svg width="19" height="19" viewBox="0 0 19 19" fill="none" xmlns="http://www.w3.org/2000/svg">
<path d="M17.45 18.4434C15.3 18.4434 13.2043 17.964 11.163 17.0054C9.121 16.0474 7.31267 14.7807 5.738 13.2054C4.16267 11.6307 2.896 9.82236 1.938 7.78036C0.979334 5.73903 0.5 3.64336 0.5 1.49336C0.5 1.19336 0.6 0.943359 0.8 0.743359C1 0.543359 1.25 0.443359 1.55 0.443359H5.6C5.83333 0.443359 6.04167 0.518359 6.225 0.668359C6.40833 0.818359 6.51667 1.01003 6.55 1.24336L7.2 4.74336C7.23333 4.97669 7.22933 5.18903 7.188 5.38036C7.146 5.57236 7.05 5.74336 6.9 5.89336L4.5 8.34336C5.2 9.54336 6.075 10.6684 7.125 11.7184C8.175 12.7684 9.33333 13.6767 10.6 14.4434L12.95 12.0934C13.1 11.9434 13.296 11.8307 13.538 11.7554C13.7793 11.6807 14.0167 11.66 14.25 11.6934L17.7 12.3934C17.9333 12.4434 18.125 12.5557 18.275 12.7304C18.425 12.9057 18.5 13.11 18.5 13.3434V17.3934C18.5 17.6934 18.4 17.9434 18.2 18.1434C18 18.3434 17.75 18.4434 17.45 18.4434Z" fill="#DB1226"/>
</svg>
