<svg width="14" height="13" viewBox="0 0 14 13" fill="none" xmlns="http://www.w3.org/2000/svg">
<path d="M5.17599 0.86792L3.15199 9.37792L2.78399 7.39992C3.51999 7.39992 4.11799 7.62992 4.57799 8.08992C5.03799 8.51925 5.26799 9.10192 5.26799 9.83792C5.26799 10.5739 5.03799 11.1719 4.57799 11.6319C4.11799 12.0919 3.55066 12.3219 2.87599 12.3219C2.13999 12.3219 1.54199 12.0919 1.08199 11.6319C0.652655 11.1413 0.437988 10.5433 0.437988 9.83792C0.437988 9.56192 0.453322 9.31659 0.483988 9.10192C0.514655 8.88725 0.575988 8.62659 0.667988 8.31992C0.759988 8.01325 0.882655 7.64525 1.03599 7.21592L2.96799 0.86792H5.17599ZM12.996 0.86792L10.972 9.37792L10.604 7.39992C11.34 7.39992 11.938 7.62992 12.398 8.08992C12.858 8.51925 13.088 9.10192 13.088 9.83792C13.088 10.5739 12.858 11.1719 12.398 11.6319C11.938 12.0919 11.3707 12.3219 10.696 12.3219C9.95999 12.3219 9.36199 12.0919 8.90199 11.6319C8.47266 11.1413 8.25799 10.5433 8.25799 9.83792C8.25799 9.56192 8.27332 9.31659 8.30399 9.10192C8.33466 8.88725 8.39599 8.62659 8.48799 8.31992C8.57999 8.01325 8.70265 7.64525 8.85599 7.21592L10.788 0.86792H12.996Z" fill="#DB1226"/>
</svg>
