<svg width="78" height="63" viewBox="0 0 78 63" fill="none" xmlns="http://www.w3.org/2000/svg">
<path d="M7.98612 24.1015L31.4474 49.1444L20.1498 24.1015H7.98612ZM38.5649 53.1739L51.7077 24.1015H25.422L38.5649 53.1739ZM20.2628 19.2812L27.9452 4.82029H18.0786L7.23295 19.2812H20.2628ZM45.6823 49.1444L69.1436 24.1015H56.9799L45.6823 49.1444ZM25.7233 19.2812H51.4064L43.7241 4.82029H33.4056L25.7233 19.2812ZM56.8669 19.2812H69.8968L59.0511 4.82029H49.1846L56.8669 19.2812ZM62.1768 0.979122L76.6377 20.2603C76.9891 20.7122 77.1523 21.2331 77.1272 21.8231C77.1021 22.4131 76.8887 22.9215 76.487 23.3483L40.3348 61.9106C39.8829 62.4128 39.2929 62.6638 38.5649 62.6638C37.8368 62.6638 37.2468 62.4128 36.7949 61.9106L0.642706 23.3483C0.241015 22.9215 0.0276163 22.4131 0.00251057 21.8231C-0.0225951 21.2331 0.140592 20.7122 0.492072 20.2603L14.953 0.979122C15.4049 0.326374 16.0451 0 16.8735 0H60.2562C61.0847 0 61.7249 0.326374 62.1768 0.979122Z" fill="url(#paint0_linear_183_1305)"/>
<defs>
<linearGradient id="paint0_linear_183_1305" x1="98.6391" y1="9.96063" x2="68.3298" y2="81.8714" gradientUnits="userSpaceOnUse">
<stop stop-color="#B27F2A"/>
<stop offset="0.0576" stop-color="#B7862E"/>
<stop offset="0.1404" stop-color="#C49939"/>
<stop offset="0.2379" stop-color="#DAB84C"/>
<stop offset="0.3333" stop-color="#F4DD62"/>
<stop offset="0.5161" stop-color="#F4E38B"/>
<stop offset="0.6613" stop-color="#F4DD62"/>
<stop offset="1" stop-color="#B27F2A"/>
</linearGradient>
</defs>
</svg>
