<svg width="16" height="13" viewBox="0 0 16 13" fill="none" xmlns="http://www.w3.org/2000/svg">
<path d="M13.0726 0.722916C13.3332 0.474812 13.68 0.337649 14.0398 0.340372C14.3996 0.343094 14.7443 0.485489 15.0011 0.737509C15.2579 0.989528 15.4068 1.33146 15.4163 1.69115C15.4258 2.05085 15.2952 2.40017 15.0521 2.66541L7.67062 11.8969C7.5437 12.0336 7.39051 12.1433 7.22021 12.2195C7.04991 12.2956 6.86601 12.3366 6.67949 12.3401C6.49298 12.3435 6.30768 12.3094 6.13468 12.2396C5.96168 12.1698 5.80453 12.0658 5.67263 11.9339L0.777547 7.03879C0.641226 6.91177 0.531888 6.75859 0.456053 6.58839C0.380218 6.41819 0.33944 6.23446 0.336153 6.04817C0.332866 5.86187 0.367137 5.67681 0.436921 5.50404C0.506705 5.33128 0.610572 5.17434 0.742326 5.04258C0.87408 4.91083 1.03102 4.80696 1.20379 4.73718C1.37656 4.66739 1.56161 4.63312 1.74791 4.63641C1.93421 4.6397 2.11794 4.68047 2.28814 4.75631C2.45834 4.83214 2.61152 4.94148 2.73854 5.0778L6.61243 8.94984L13.0375 0.763617C13.049 0.749373 13.0614 0.735785 13.0745 0.722916H13.0726Z" fill="#DB1226"/>
</svg>
