<svg width="73" height="72" viewBox="0 0 73 72" fill="none" xmlns="http://www.w3.org/2000/svg">
<g clip-path="url(#clip0_183_1307)">
<path d="M36.8754 3.83312e-07C38.0544 3.83312e-07 39.2154 0.0765004 40.2954 0.2565C41.3591 0.395877 42.4086 0.627756 43.4319 0.9495C44.4579 1.26 45.4614 1.647 46.4649 2.133C47.4414 2.5965 48.4449 3.1635 49.4484 3.78C51.1449 4.86 52.8144 5.733 54.5154 6.4305C57.8641 7.77075 61.405 8.56827 65.0049 8.793C66.8319 8.9235 68.7084 9 70.6614 9V27C70.6614 30.42 70.2249 33.66 69.3519 36.747C68.5133 39.79 67.3217 42.7244 65.8014 45.4905C64.2875 48.2527 62.4963 50.8536 60.4554 53.253C58.3833 55.7069 56.1396 58.0107 53.7414 60.147C51.3115 62.2896 48.7522 64.2809 46.0779 66.1095C43.4049 67.9635 40.7049 69.687 38.0049 71.253L36.9249 71.8965L35.8449 71.253C33.0693 69.6461 30.3582 67.9302 27.7179 66.1095C25.0287 64.3015 22.4681 62.3092 20.0544 60.147C17.6577 58.0106 15.4155 55.7068 13.3449 53.253C11.3095 50.8435 9.51028 48.244 7.97192 45.4905C6.47761 42.7121 5.28723 39.7806 4.42142 36.747C3.54288 33.5733 3.10974 30.2929 3.13442 27V9C5.09192 9 6.96842 8.9235 8.79542 8.793C10.5939 8.66808 12.3807 8.41089 14.1414 8.0235C15.8649 7.6365 17.5884 7.1235 19.2849 6.4305C21.0453 5.72002 22.7331 4.84145 24.3249 3.807C26.3049 2.52 28.3119 1.5705 30.2919 0.945C32.4243 0.291293 34.6452 -0.0275014 36.8754 3.83312e-07V3.83312e-07ZM66.1344 13.4235C62.7281 13.2582 59.3534 12.6887 56.0814 11.727C52.8268 10.7561 49.7267 9.32734 46.8744 7.4835C45.3949 6.51238 43.7882 5.75066 42.0999 5.22C40.4135 4.71031 38.6597 4.45846 36.8979 4.473C35.1231 4.46152 33.3564 4.71326 31.6554 5.22C29.9646 5.73341 28.36 6.49632 26.8944 7.4835C24.0372 9.3374 20.9291 10.7725 17.6649 11.745C14.4744 12.672 11.1354 13.239 7.63442 13.446V27.0225C7.63442 30.006 8.02142 32.859 8.79542 35.6085C9.58394 38.3341 10.6705 40.9645 12.0354 43.452C13.4167 45.9654 15.0447 48.3351 16.8954 50.526C18.7719 52.7355 20.7744 54.792 22.9344 56.745C25.0944 58.7025 27.3579 60.5025 29.7249 62.172C32.1144 63.846 34.5084 65.3625 36.8979 66.7485C39.3446 65.3241 41.7303 63.7973 44.0484 62.172C46.4311 60.5078 48.7066 58.6952 50.8614 56.745C53.0214 54.792 55.0284 52.7355 56.9049 50.526C58.7558 48.3352 60.3839 45.9655 61.7649 43.452C63.1238 40.9676 64.1942 38.336 64.9554 35.6085C65.7529 32.8168 66.1499 29.9259 66.1344 27.0225V13.4235V13.4235Z" fill="url(#paint0_linear_183_1307)"/>
<path fill-rule="evenodd" clip-rule="evenodd" d="M53.6514 21.1905L51.6714 19.4895L49.8444 19.647L30.2244 42.813L23.5419 33.273L21.7419 32.967L19.6584 34.4565L19.3479 36.2565L27.9384 48.5235L28.9149 49.0635L30.9714 49.1895L32.0244 48.7305L53.7819 23.013L53.6514 21.1905V21.1905Z" fill="url(#paint1_linear_183_1307)"/>
</g>
<defs>
<linearGradient id="paint0_linear_183_1307" x1="89.4932" y1="11.4268" x2="48.3698" y2="85.8772" gradientUnits="userSpaceOnUse">
<stop stop-color="#B27F2A"/>
<stop offset="0.0576" stop-color="#B7862E"/>
<stop offset="0.1404" stop-color="#C49939"/>
<stop offset="0.2379" stop-color="#DAB84C"/>
<stop offset="0.3333" stop-color="#F4DD62"/>
<stop offset="0.5161" stop-color="#F4E38B"/>
<stop offset="0.6613" stop-color="#F4DD62"/>
<stop offset="1" stop-color="#B27F2A"/>
</linearGradient>
<linearGradient id="paint1_linear_183_1307" x1="63.3846" y1="24.2104" x2="48.4207" y2="57.6521" gradientUnits="userSpaceOnUse">
<stop stop-color="#B27F2A"/>
<stop offset="0.0576" stop-color="#B7862E"/>
<stop offset="0.1404" stop-color="#C49939"/>
<stop offset="0.2379" stop-color="#DAB84C"/>
<stop offset="0.3333" stop-color="#F4DD62"/>
<stop offset="0.5161" stop-color="#F4E38B"/>
<stop offset="0.6613" stop-color="#F4DD62"/>
<stop offset="1" stop-color="#B27F2A"/>
</linearGradient>
<clipPath id="clip0_183_1307">
<rect width="72" height="72" fill="white" transform="translate(0.564941)"/>
</clipPath>
</defs>
</svg>
